HIERARCHY
ROOT hip
{
  OFFSET 0 0 0
  CHANNELS 6 Xposition Yposition Zposition Zrotation Yrotation Xrotation
  JOINT abdomen
  {
    OFFSET 0 20.6881 -0.73152
    CHANNELS 3 Zrotation Xrotation Yrotation
    JOINT chest
    {
      OFFSET 0 11.7043 -0.48768
      CHANNELS 3 Zrotation Xrotation Yrotation
      JOINT neck
      {
        OFFSET 0 22.1894 -2.19456
        CHANNELS 3 Zrotation Xrotation Yrotation
        JOINT head
        {
          OFFSET -0.24384 7.07133 1.2192
          CHANNELS 3 Zrotation Xrotation Yrotation
          JOINT leftEye
          {
            OFFSET 4.14528 8.04674 8.04672
            CHANNELS 3 Zrotation Xrotation Yrotation
            End Site
            {
              OFFSET 1 0 0
            }
          }
          JOINT rightEye
          {
            OFFSET -3.6576 8.04674 8.04672
            CHANNELS 3 Zrotation Xrotation Yrotation
            End Site
            {
              OFFSET 1 0 0
            }
          }
        }
      }
      JOINT rCollar
      {
        OFFSET -2.68224 19.2634 -4.8768
        CHANNELS 3 Zrotation Xrotation Yrotation
        JOINT rShldr
        {
          OFFSET -8.77824 -1.95073 1.46304
          CHANNELS 3 Zrotation Xrotation Yrotation
          JOINT rForeArm
          {
            OFFSET -28.1742 -1.7115 0.48768
            CHANNELS 3 Zrotation Xrotation Yrotation
            JOINT rHand
            {
              OFFSET -22.5879 0.773209 7.07136
              CHANNELS 3 Zrotation Xrotation Yrotation
              JOINT rThumb1
              {
                OFFSET -1.2192 -0.487915 3.41376
                CHANNELS 3 Zrotation Xrotation Yrotation
                JOINT rThumb2
                {
                  OFFSET -3.37035 -0.52449 3.41376
                  CHANNELS 3 Zrotation Xrotation Yrotation
                  End Site
                  {
                    OFFSET -1.78271 -1.18214 1.43049
                  }
                }
              }
              JOINT rIndex1
              {
                OFFSET -7.75947 0.938293 5.60832
                CHANNELS 3 Zrotation Xrotation Yrotation
                JOINT rIndex2
                {
                  OFFSET -2.54057 -0.884171 1.56538
                  CHANNELS 3 Zrotation Xrotation Yrotation
                  End Site
                  {
                    OFFSET -1.62519 -0.234802 1.16502
                  }
                }
              }
              JOINT rMid1
              {
                OFFSET -8.24714 1.18213 3.41376
                CHANNELS 3 Zrotation Xrotation Yrotation
                JOINT rMid2
                {
                  OFFSET -3.10165 -0.590103 1.0647
                  CHANNELS 3 Zrotation Xrotation Yrotation
                  End Site
                  {
                    OFFSET -2.48547 -0.328903 0.83742
                  }
                }
              }
              JOINT rRing1
              {
                OFFSET -8.82822 0.546677 1.51678
                CHANNELS 3 Zrotation Xrotation Yrotation
                JOINT rRing2
                {
                  OFFSET -2.60934 -0.819778 -0.0198488
                  CHANNELS 3 Zrotation Xrotation Yrotation
                  End Site
                  {
                    OFFSET -2.33842 -0.294052 0.168128
                  }
                }
              }
              JOINT rPinky1
              {
                OFFSET -8.27202 -0.0477905 -0.4584
                CHANNELS 3 Zrotation Xrotation Yrotation
                JOINT rPinky2
                {
                  OFFSET -1.82734 -0.647385 -0.700984
                  CHANNELS 3 Zrotation Xrotation Yrotation
                  End Site
                  {
                    OFFSET -1.69225 -0.51767 -0.607171
                  }
                }
              }
            }
          }
        }
      }
      JOINT lCollar
      {
        OFFSET 2.68224 19.2634 -4.8768
        CHANNELS 3 Zrotation Xrotation Yrotation
        JOINT lShldr
        {
          OFFSET 8.77824 -1.95073 1.46304
          CHANNELS 3 Zrotation Xrotation Yrotation
          JOINT lForeArm
          {
            OFFSET 28.1742 -1.7115 0.48768
            CHANNELS 3 Zrotation Xrotation Yrotation
            JOINT lHand
            {
              OFFSET 22.5879 0.773209 7.07136
              CHANNELS 3 Zrotation Xrotation Yrotation
              JOINT lThumb1
              {
                OFFSET 1.2192 -0.487915 3.41376
                CHANNELS 3 Zrotation Xrotation Yrotation
                JOINT lThumb2
                {
                  OFFSET 3.37035 -0.52449 3.41376
                  CHANNELS 3 Zrotation Xrotation Yrotation
                  End Site
                  {
                    OFFSET 1.78271 -1.18214 1.43049
                  }
                }
              }
              JOINT lIndex1
              {
                OFFSET 7.75947 0.938293 5.60832
                CHANNELS 3 Zrotation Xrotation Yrotation
                JOINT lIndex2
                {
                  OFFSET 2.54057 -0.884171 1.56538
                  CHANNELS 3 Zrotation Xrotation Yrotation
                  End Site
                  {
                    OFFSET 1.62519 -0.234802 1.16502
                  }
                }
              }
              JOINT lMid1
              {
                OFFSET 8.24714 1.18213 3.41376
                CHANNELS 3 Zrotation Xrotation Yrotation
                JOINT lMid2
                {
                  OFFSET 3.10165 -0.590103 1.0647
                  CHANNELS 3 Zrotation Xrotation Yrotation
                  End Site
                  {
                    OFFSET 2.48547 -0.328903 0.83742
                  }
                }
              }
              JOINT lRing1
              {
                OFFSET 8.82822 0.546677 1.51678
                CHANNELS 3 Zrotation Xrotation Yrotation
                JOINT lRing2
                {
                  OFFSET 2.60934 -0.819778 -0.0198488
                  CHANNELS 3 Zrotation Xrotation Yrotation
                  End Site
                  {
                    OFFSET 2.33842 -0.294052 0.168128
                  }
                }
              }
              JOINT lPinky1
              {
                OFFSET 8.27202 -0.0477905 -0.4584
                CHANNELS 3 Zrotation Xrotation Yrotation
                JOINT lPinky2
                {
                  OFFSET 1.82734 -0.647385 -0.700984
                  CHANNELS 3 Zrotation Xrotation Yrotation
                  End Site
                  {
                    OFFSET 1.69225 -0.51767 -0.607171
                  }
                }
              }
            }
          }
        }
      }
    }
  }
  JOINT rButtock
  {
    OFFSET -8.77824 4.35084 1.2192
    CHANNELS 3 Zrotation Xrotation Yrotation
    JOINT rThigh
    {
      OFFSET 0 -1.70687 -2.19456
      CHANNELS 3 Zrotation Xrotation Yrotation
      JOINT rShin
      {
        OFFSET 0 -36.8199 0.73152
        CHANNELS 3 Zrotation Xrotation Yrotation
        JOINT rFoot
        {
          OFFSET 0.73152 -45.1104 -5.12064
          CHANNELS 3 Zrotation Xrotation Yrotation
          End Site
          {
            OFFSET -1.1221 -3.69964 12.103
          }
        }
      }
    }
  }
  JOINT lButtock
  {
    OFFSET 8.77824 4.35084 1.2192
    CHANNELS 3 Zrotation Xrotation Yrotation
    JOINT lThigh
    {
      OFFSET 0 -1.70687 -2.19456
      CHANNELS 3 Zrotation Xrotation Yrotation
      JOINT lShin
      {
        OFFSET 0 -36.8199 0.73152
        CHANNELS 3 Zrotation Xrotation Yrotation
        JOINT lFoot
        {
          OFFSET -0.73152 -45.1104 -5.12064
          CHANNELS 3 Zrotation Xrotation Yrotation
          End Site
          {
            OFFSET 1.1221 -3.69964 12.103
          }
        }
      }
    }
  }
}
MOTION
Frames:	4
Frame Time:	0.03333
6.413707230240107 64.05031681060791 -12.611537612974644 -43.00621032714844 64.05249786376953 -29.080774307250977 8.831104278564453 9.514128684997559 1.4520289897918701 5.484429836273193 -7.227390766143799 1.0148426294326782 -9.62173843383789 23.8341121673584 -19.254817962646484 15.921379089355469 -28.212772369384766 -34.29656982421875 0.14443357288837433 0.019525805488228798 0.017606614157557487 0.061775170266628265 0.028272802010178566 -0.04465222731232643 0.012916795909404755 0.02639261819422245 0.03527262061834335 57.26129913330078 -17.760295867919922 25.746294021606445 -26.379793167114258 -25.72870445251465 59.990543365478516 -0.7060781717300415 -27.944320678710938 -4.622103691101074 -0.01047302596271038 -0.04339383542537689 -0.05359716713428497 -0.03077697940170765 -0.0007448906544595957 0.025546705350279808 -0.0072523001581430435 0.040956564247608185 0.10926056653261185 7.772377014160156 5.454105854034424 0.4768511950969696 -0.04444259777665138 -0.025477005168795586 0.11166352778673172 2.9153025150299072 0.8959169387817383 0.07222110778093338 0.027047164738178253 0.034409139305353165 0.0689365491271019 10.241487503051758 0.8035205602645874 0.17080058157444 -0.05729656293988228 0.013963783159852028 -0.003782749641686678 2.6124167442321777 -0.7259047627449036 -0.13673147559165955 0.14816872775554657 0.06945589929819107 0.06137143447995186 -103.06536102294922 49.90756607055664 38.26835250854492 28.13066864013672 -39.6910514831543 -83.33963012695312 14.124229431152344 -68.6402816772461 20.97309112548828 -0.022186381742358208 -0.01898103766143322 -0.07404202222824097 0.09737589955329895 -0.035979628562927246 0.020931551232933998 -0.1241784393787384 -0.04681328684091568 0.010190960951149464 -7.58367919921875 5.366952896118164 -0.5222793221473694 -0.016976632177829742 -0.10377439856529236 0.1019010916352272 -2.896169424057007 0.9318696856498718 -0.20956140756607056 -0.14595463871955872 0.07419266551733017 -0.020091582089662552 -10.281957626342773 0.8570516109466553 -0.07178182154893875 -0.04522239789366722 -0.018692277371883392 0.011110893450677395 -2.140106678009033 -0.6835391521453857 0.28050941228866577 0.12721414864063263 -0.014725209213793278 0.0398733988404274 -6.223882675170898 1.2958228588104248 -8.90738582611084 -0.5793769359588623 43.48158645629883 1.6702642440795898 -10.002327919006348 -19.520057678222656 -17.29439353942871 -0.10012058168649673 -0.00545251602306962 -0.02593330107629299 68.57991790771484 -61.09595489501953 53.65306854248047 6.586758613586426 80.16520690917969 -6.227736473083496 -0.6727800369262695 -10.946671485900879 -3.772991180419922
6.661198567599058 64.73889946937561 -12.957929074764252 -41.74308395385742 63.78268051147461 -26.25238800048828 8.087935447692871 9.830096244812012 1.717285394668579 5.289519309997559 -7.4992146492004395 1.1457082033157349 -9.586799621582031 23.819629669189453 -19.05422592163086 15.632979393005371 -28.340639114379883 -34.1831169128418 0.14793579280376434 0.06572555005550385 0.040622562170028687 0.062467627227306366 0.05201936513185501 -0.04333420470356941 0.009847011417150497 0.009952064603567123 0.07078775763511658 57.29237747192383 -16.69097328186035 25.884618759155273 -26.24655532836914 -25.50633430480957 59.59720993041992 -0.5104755759239197 -27.721227645874023 -4.61745548248291 0.024683907628059387 -0.024727819487452507 -0.033725373446941376 -0.043842557817697525 -0.01142799574881792 -0.022319011390209198 -0.0022970030549913645 0.06959853321313858 0.1367969661951065 7.7904839515686035 5.4812164306640625 0.49571818113327026 -0.02485020086169243 -0.0031133152078837156 0.06490036100149155 2.910393714904785 0.8610446453094482 0.0665404200553894 0.004496608395129442 0.048881690949201584 0.0261908620595932 10.237298965454102 0.7428651452064514 0.1426156908273697 -0.029601138085126877 -0.0011882486287504435 -0.02067849226295948 2.6210711002349854 -0.6997057795524597 -0.13307321071624756 0.13255909085273743 0.11948428303003311 0.04726295918226242 -101.7114486694336 49.410736083984375 36.64820861816406 28.17268943786621 -39.29561233520508 -82.7778091430664 13.241354942321777 -67.9773178100586 20.163829803466797 -0.03030182048678398 -0.053351402282714844 -0.08063124120235443 0.10225006192922592 -0.012829444371163845 -0.00910033006221056 -0.1336592435836792 -0.05825253203511238 0.02873259223997593 -7.5505218505859375 5.377735137939453 -0.5314415693283081 -0.023877764120697975 -0.08049879223108292 0.1508501172065735 -2.8561158180236816 0.9223805069923401 -0.17794571816921234 -0.15666024386882782 0.09134956449270248 -0.03240590915083885 -10.229125022888184 0.8240956664085388 -0.09999403357505798 -0.03523489460349083 -0.02457534335553646 0.010539050213992596 -2.1063590049743652 -0.6667938828468323 0.2993790805339813 0.10920633375644684 0.00712207518517971 0.00037191956653259695 -6.672896862030029 0.7642531394958496 -8.917455673217773 -0.7077627182006836 43.781742095947266 1.6832305192947388 -9.4575834274292 -18.23790168762207 -16.102750778198242 -0.10809950530529022 -0.04085400328040123 -0.0372823141515255 66.89540100097656 -61.82691955566406 52.27953338623047 6.887530326843262 79.85246276855469 -6.326629161834717 -0.34203335642814636 -11.049009323120117 -2.8015921115875244
6.827438902109861 65.44203162193298 -13.118192553520203 -21.063539505004883 61.16386413574219 -9.966838836669922 4.885361194610596 11.826104164123535 2.1417455673217773 5.369537353515625 -7.937667369842529 1.2935858964920044 -9.411409378051758 23.07110023498535 -17.972097396850586 15.625078201293945 -30.157079696655273 -31.87318992614746 0.13495229184627533 0.0047116708010435104 0.03266262263059616 0.045222941786050797 0.08106495440006256 -0.013103373348712921 -0.0036314143799245358 0.013642492704093456 0.05682918801903725 53.733402252197266 -9.90590763092041 26.764259338378906 -24.712265014648438 -21.284894943237305 52.73588180541992 0.18399633467197418 -6.5842671394348145 -1.2280118465423584 0.0502336360514164 0.05393704026937485 -0.035163868218660355 -0.020618658512830734 -0.02580353617668152 -0.024500226601958275 -0.016588516533374786 0.13290277123451233 0.10176462680101395 7.79434871673584 5.519932270050049 0.4486027657985687 0.00525015639141202 -0.04349265247583389 0.0036735550966113806 2.9132823944091797 0.8840155005455017 0.05253547057509422 0.014965610578656197 0.05982644110918045 -0.020022302865982056 10.254168510437012 0.6908019781112671 0.07343655824661255 -0.08647400885820389 -0.006437677890062332 -0.07504324615001678 2.5541903972625732 -0.7030288577079773 -0.16784149408340454 0.10958068817853928 0.09582684934139252 0.03485909104347229 -79.99848937988281 55.17313766479492 8.103553771972656 28.17450714111328 -39.59531021118164 -83.59949493408203 5.326345920562744 -54.52946090698242 11.227811813354492 -0.021320806816220284 -0.08289453387260437 -0.07727979123592377 0.07766315340995789 0.02997737005352974 -0.007476456928998232 -0.06952696293592453 -0.03293779492378235 0.04242590442299843 -7.624375343322754 5.390730381011963 -0.5427168607711792 0.045678429305553436 -0.09973066300153732 0.12716379761695862 -2.846134901046753 0.980137288570404 -0.14013943076133728 -0.103582464158535 0.02427097223699093 -0.08914665132761002 -10.228440284729004 0.8452378511428833 -0.0801098644733429 -0.08350524306297302 -0.03919712081551552 -0.06192744895815849 -2.121965169906616 -0.6404418349266052 0.33196672797203064 0.1215158998966217 0.08352531492710114 -0.05292394757270813 -10.403826713562012 -6.041460990905762 -5.007830619812012 -0.6702127456665039 43.463199615478516 1.448085069656372 -7.327054500579834 -12.475540161132812 -14.99338150024414 -0.06964203715324402 -0.06285343319177628 -0.03855512663722038 49.11821365356445 -62.21377944946289 37.9991455078125 5.3340535163879395 76.1469955444336 -4.7435526847839355 2.109311819076538 -10.264333724975586 5.217070579528809
6.884424667805433 66.0694420337677 -13.102527055889368 -8.72828483581543 56.06156921386719 -0.9108217358589172 -0.29880160093307495 14.251681327819824 2.804720163345337 5.536336421966553 -8.572522163391113 1.206640601158142 -8.91057014465332 22.26263427734375 -16.340435028076172 16.312618255615234 -32.551334381103516 -28.35425567626953 0.07352755963802338 -0.0789853185415268 0.009949195198714733 0.016309699043631554 0.037868648767471313 -0.006974594667553902 -0.009061935357749462 -0.002912812167778611 0.04697650671005249 49.817501068115234 -1.0116662979125977 27.2160587310791 -23.312198638916016 -18.086755752563477 47.671241760253906 -0.18718349933624268 11.122780799865723 1.350998044013977 0.02149169333279133 0.08313921093940735 -0.035025592893362045 0.052032340317964554 -0.04310669004917145 0.010937756858766079 -0.06937385350465775 0.14249034225940704 0.03709295764565468 7.751293659210205 5.570487022399902 0.4108589291572571 0.012632489204406738 -0.04747219756245613 -0.017878033220767975 2.875600814819336 0.8678128719329834 0.02391492761671543 -0.0073398505337536335 0.09789244085550308 -0.01678582653403282 10.256377220153809 0.7176428437232971 0.021464888006448746 -0.09478335082530975 0.024737775325775146 -0.07930868864059448 2.4778196811676025 -0.7209389805793762 -0.17168952524662018 0.035957179963588715 -0.029765617102384567 0.009892779402434826 -51.6536865234375 52.33718490600586 -28.43122673034668 27.923131942749023 -40.64813995361328 -85.6092529296875 2.461402177810669 -42.01923370361328 7.217202186584473 -0.018291592597961426 -0.06468761712312698 -0.018250081688165665 0.057392869144678116 0.08328553289175034 0.06368687748908997 -0.0027835951186716557 0.014900053851306438 0.03400084376335144 -7.738977909088135 5.3866729736328125 -0.5338242053985596 0.07220199704170227 -0.13037563860416412 0.10357362031936646 -2.880704641342163 1.0683531761169434 -0.09876445680856705 -0.024584053084254265 -0.041668981313705444 -0.09126769006252289 -10.240598678588867 0.8648096919059753 -0.0927509218454361 -0.1692146509885788 -0.04934893175959587 -0.10979579389095306 -2.0738775730133057 -0.6511129140853882 0.3371264338493347 0.09656780958175659 0.10940907895565033 -0.0859251618385315 -14.347966194152832 -15.038886070251465 -2.539660692214966 -0.7212167978286743 46.359737396240234 1.266728401184082 -5.535401821136475 -8.075186729431152 -14.76774787902832 -0.005965233780443668 -0.04199596866965294 -0.02445494942367077 30.235118865966797 -59.94276428222656 23.050640106201172 3.7634265422821045 71.97061920166016 -3.3069090843200684 4.709053993225098 -9.477555274963379 14.558409690856934
